M48
; DRILL file {KiCad 9.0.7-9.0.7~ubuntu24.04.1} date 2026-03-22T20:29:40-0500
; FORMAT={-:-/ absolute / metric / decimal}
; #@! TF.CreationDate,2026-03-22T20:29:40-05:00
; #@! TF.GenerationSoftware,Kicad,Pcbnew,9.0.7-9.0.7~ubuntu24.04.1
; #@! TF.FileFunction,Plated,1,2,PTH
FMAT,2
METRIC
; #@! TA.AperFunction,Plated,PTH,ViaDrill
T1C0.300
; #@! TA.AperFunction,Plated,PTH,ComponentDrill
T2C1.000
; #@! TA.AperFunction,Plated,PTH,ComponentDrill
T3C1.100
; #@! TA.AperFunction,Plated,PTH,ComponentDrill
T4C1.200
; #@! TA.AperFunction,Plated,PTH,ComponentDrill
T5C3.200
%
G90
G05
T1
X46.25Y-120.0
X75.75Y-86.0
X81.5Y-102.5
T2
X24.68Y-116.5
X27.22Y-116.5
X29.76Y-116.5
X32.3Y-116.5
X34.84Y-116.5
X37.38Y-116.5
X38.25Y-122.21
X38.25Y-124.75
X38.25Y-127.29
X39.92Y-116.5
X42.46Y-116.5
X44.25Y-136.5
X44.25Y-139.0
X45.0Y-116.5
X51.76Y-104.44
X51.76Y-106.98
X51.76Y-109.52
X51.76Y-112.06
X51.76Y-114.6
X51.76Y-117.14
X51.76Y-119.68
X51.76Y-122.22
X51.76Y-124.76
X51.76Y-127.3
X51.76Y-129.84
X51.76Y-132.38
X51.76Y-134.92
X51.76Y-137.46
X51.76Y-140.0
X66.09Y-81.8
X66.09Y-84.34
X66.09Y-86.88
X66.09Y-89.42
X66.09Y-91.96
X66.09Y-94.5
X67.0Y-104.44
X67.0Y-106.98
X67.0Y-109.52
X67.0Y-112.06
X67.0Y-114.6
X67.0Y-117.14
X67.0Y-119.68
X67.0Y-122.22
X67.0Y-124.76
X67.0Y-127.3
X67.0Y-129.84
X67.0Y-132.38
X67.0Y-134.92
X67.0Y-137.46
X67.0Y-140.0
X72.75Y-114.59
X72.75Y-117.13
X72.75Y-119.67
X72.75Y-122.21
X72.75Y-124.75
X72.75Y-127.29
X72.75Y-129.83
T3
X85.0Y-85.67
X85.0Y-88.21
X85.0Y-90.75
X85.0Y-98.92
X85.0Y-101.46
X85.0Y-104.0
T4
X30.0Y-121.71
X30.0Y-124.25
X30.0Y-126.79
X30.0Y-129.33
T5
X30.25Y-138.25
X30.5Y-79.5
X75.75Y-139.75
X81.75Y-77.75
M30
