%TF.GenerationSoftware,KiCad,Pcbnew,9.0.8-9.0.8~ubuntu24.04.1*%
%TF.CreationDate,2026-04-20T13:08:53-05:00*%
%TF.ProjectId,borealis_altimeter,626f7265-616c-4697-935f-616c74696d65,rev?*%
%TF.SameCoordinates,Original*%
%TF.FileFunction,Soldermask,Top*%
%TF.FilePolarity,Negative*%
%FSLAX46Y46*%
G04 Gerber Fmt 4.6, Leading zero omitted, Abs format (unit mm)*
G04 Created by KiCad (PCBNEW 9.0.8-9.0.8~ubuntu24.04.1) date 2026-04-20 13:08:53*
%MOMM*%
%LPD*%
G01*
G04 APERTURE LIST*
G04 Aperture macros list*
%AMRoundRect*
0 Rectangle with rounded corners*
0 $1 Rounding radius*
0 $2 $3 $4 $5 $6 $7 $8 $9 X,Y pos of 4 corners*
0 Add a 4 corners polygon primitive as box body*
4,1,4,$2,$3,$4,$5,$6,$7,$8,$9,$2,$3,0*
0 Add four circle primitives for the rounded corners*
1,1,$1+$1,$2,$3*
1,1,$1+$1,$4,$5*
1,1,$1+$1,$6,$7*
1,1,$1+$1,$8,$9*
0 Add four rect primitives between the rounded corners*
20,1,$1+$1,$2,$3,$4,$5,0*
20,1,$1+$1,$4,$5,$6,$7,0*
20,1,$1+$1,$6,$7,$8,$9,0*
20,1,$1+$1,$8,$9,$2,$3,0*%
G04 Aperture macros list end*
%ADD10C,6.400000*%
%ADD11C,1.200000*%
%ADD12RoundRect,0.250000X-0.750000X0.600000X-0.750000X-0.600000X0.750000X-0.600000X0.750000X0.600000X0*%
%ADD13O,2.000000X1.700000*%
%ADD14RoundRect,0.250000X-0.312500X-1.075000X0.312500X-1.075000X0.312500X1.075000X-0.312500X1.075000X0*%
%ADD15R,1.700000X1.700000*%
%ADD16C,1.700000*%
%ADD17RoundRect,0.250000X-0.750000X0.750000X-0.750000X-0.750000X0.750000X-0.750000X0.750000X0.750000X0*%
%ADD18C,2.000000*%
%ADD19R,1.600000X1.600000*%
%ADD20O,1.600000X1.600000*%
%ADD21R,2.000000X1.905000*%
%ADD22O,2.000000X1.905000*%
%ADD23RoundRect,0.250000X0.650000X-0.412500X0.650000X0.412500X-0.650000X0.412500X-0.650000X-0.412500X0*%
G04 APERTURE END LIST*
D10*
%TO.C,H1*%
X30500000Y-79500000D03*
%TD*%
D11*
%TO.C,J4*%
X42250000Y-134900000D03*
D12*
X44250000Y-136500000D03*
D13*
X44250000Y-139000000D03*
%TD*%
D14*
%TO.C,R3*%
X77287500Y-98500000D03*
X80212500Y-98500000D03*
%TD*%
D10*
%TO.C,H2*%
X81750000Y-77750000D03*
%TD*%
D14*
%TO.C,R1*%
X71287500Y-86250000D03*
X74212500Y-86250000D03*
%TD*%
D15*
%TO.C,TO-220*%
X38250000Y-122210000D03*
D16*
X38250000Y-124750000D03*
X38250000Y-127290000D03*
%TD*%
D14*
%TO.C,R2*%
X77000000Y-103500000D03*
X79925000Y-103500000D03*
%TD*%
D17*
%TO.C,J3*%
X30000000Y-121710000D03*
D18*
X30000000Y-124250000D03*
X30000000Y-126790000D03*
X30000000Y-129330000D03*
%TD*%
D10*
%TO.C,H3*%
X30250000Y-138250000D03*
%TD*%
D15*
%TO.C,J2*%
X24680000Y-116500000D03*
D16*
X27220000Y-116500000D03*
X29760000Y-116500000D03*
X32300000Y-116500000D03*
X34840000Y-116500000D03*
X37380000Y-116500000D03*
X39920000Y-116500000D03*
X42460000Y-116500000D03*
X45000000Y-116500000D03*
%TD*%
D19*
%TO.C,A1*%
X51760000Y-104440000D03*
D20*
X51760000Y-106980000D03*
X51760000Y-109520000D03*
X51760000Y-112060000D03*
X51760000Y-114600000D03*
X51760000Y-117140000D03*
X51760000Y-119680000D03*
X51760000Y-122220000D03*
X51760000Y-124760000D03*
X51760000Y-127300000D03*
X51760000Y-129840000D03*
X51760000Y-132380000D03*
X51760000Y-134920000D03*
X51760000Y-137460000D03*
X51760000Y-140000000D03*
X67000000Y-140000000D03*
X67000000Y-137460000D03*
X67000000Y-134920000D03*
X67000000Y-132380000D03*
X67000000Y-129840000D03*
X67000000Y-127300000D03*
X67000000Y-124760000D03*
X67000000Y-122220000D03*
X67000000Y-119680000D03*
X67000000Y-117140000D03*
X67000000Y-114600000D03*
X67000000Y-112060000D03*
X67000000Y-109520000D03*
X67000000Y-106980000D03*
X67000000Y-104440000D03*
%TD*%
D21*
%TO.C,Q1*%
X85000000Y-85670000D03*
D22*
X85000000Y-88210000D03*
X85000000Y-90750000D03*
%TD*%
D23*
%TO.C,C1*%
X46500000Y-125000000D03*
X46500000Y-121875000D03*
%TD*%
D15*
%TO.C,J1*%
X66090000Y-91950000D03*
D16*
X66090000Y-89410000D03*
X66090000Y-86870000D03*
X66090000Y-84330000D03*
X66090000Y-81790000D03*
X66090000Y-79250000D03*
%TD*%
D21*
%TO.C,Q2*%
X85000000Y-98920000D03*
D22*
X85000000Y-101460000D03*
X85000000Y-104000000D03*
%TD*%
D15*
%TO.C,U5*%
X72750000Y-114590000D03*
D16*
X72750000Y-117130000D03*
X72750000Y-119670000D03*
X72750000Y-122210000D03*
X72750000Y-124750000D03*
X72750000Y-127290000D03*
X72750000Y-129830000D03*
%TD*%
D10*
%TO.C,H4*%
X75750000Y-139750000D03*
%TD*%
D14*
%TO.C,R4*%
X71325000Y-92500000D03*
X74250000Y-92500000D03*
%TD*%
M02*
