%TF.GenerationSoftware,KiCad,Pcbnew,9.0.7-9.0.7~ubuntu24.04.1*%
%TF.CreationDate,2026-03-22T20:36:56-05:00*%
%TF.ProjectId,testkicad,74657374-6b69-4636-9164-2e6b69636164,rev?*%
%TF.SameCoordinates,Original*%
%TF.FileFunction,Copper,L1,Top*%
%TF.FilePolarity,Positive*%
%FSLAX46Y46*%
G04 Gerber Fmt 4.6, Leading zero omitted, Abs format (unit mm)*
G04 Created by KiCad (PCBNEW 9.0.7-9.0.7~ubuntu24.04.1) date 2026-03-22 20:36:56*
%MOMM*%
%LPD*%
G01*
G04 APERTURE LIST*
G04 Aperture macros list*
%AMRoundRect*
0 Rectangle with rounded corners*
0 $1 Rounding radius*
0 $2 $3 $4 $5 $6 $7 $8 $9 X,Y pos of 4 corners*
0 Add a 4 corners polygon primitive as box body*
4,1,4,$2,$3,$4,$5,$6,$7,$8,$9,$2,$3,0*
0 Add four circle primitives for the rounded corners*
1,1,$1+$1,$2,$3*
1,1,$1+$1,$4,$5*
1,1,$1+$1,$6,$7*
1,1,$1+$1,$8,$9*
0 Add four rect primitives between the rounded corners*
20,1,$1+$1,$2,$3,$4,$5,0*
20,1,$1+$1,$4,$5,$6,$7,0*
20,1,$1+$1,$6,$7,$8,$9,0*
20,1,$1+$1,$8,$9,$2,$3,0*%
G04 Aperture macros list end*
%TA.AperFunction,ComponentPad*%
%ADD10C,1.700000*%
%TD*%
%TA.AperFunction,ComponentPad*%
%ADD11R,1.700000X1.700000*%
%TD*%
%TA.AperFunction,ComponentPad*%
%ADD12C,6.400000*%
%TD*%
%TA.AperFunction,ComponentPad*%
%ADD13RoundRect,0.250000X-0.750000X0.600000X-0.750000X-0.600000X0.750000X-0.600000X0.750000X0.600000X0*%
%TD*%
%TA.AperFunction,ComponentPad*%
%ADD14O,2.000000X1.700000*%
%TD*%
%TA.AperFunction,SMDPad,CuDef*%
%ADD15RoundRect,0.250000X-0.312500X-1.075000X0.312500X-1.075000X0.312500X1.075000X-0.312500X1.075000X0*%
%TD*%
%TA.AperFunction,ComponentPad*%
%ADD16RoundRect,0.250000X-0.750000X0.750000X-0.750000X-0.750000X0.750000X-0.750000X0.750000X0.750000X0*%
%TD*%
%TA.AperFunction,ComponentPad*%
%ADD17C,2.000000*%
%TD*%
%TA.AperFunction,ComponentPad*%
%ADD18R,1.600000X1.600000*%
%TD*%
%TA.AperFunction,ComponentPad*%
%ADD19O,1.600000X1.600000*%
%TD*%
%TA.AperFunction,ComponentPad*%
%ADD20R,2.000000X1.905000*%
%TD*%
%TA.AperFunction,ComponentPad*%
%ADD21O,2.000000X1.905000*%
%TD*%
%TA.AperFunction,SMDPad,CuDef*%
%ADD22RoundRect,0.250000X0.650000X-0.412500X0.650000X0.412500X-0.650000X0.412500X-0.650000X-0.412500X0*%
%TD*%
%TA.AperFunction,ViaPad*%
%ADD23C,0.600000*%
%TD*%
%TA.AperFunction,Conductor*%
%ADD24C,0.200000*%
%TD*%
G04 APERTURE END LIST*
D10*
%TO.P,J2,9,RST*%
%TO.N,Net-(A1-D2)*%
X45000000Y-116500000D03*
%TO.P,J2,8,CS*%
%TO.N,unconnected-(J2-CS-Pad8)*%
X42460000Y-116500000D03*
%TO.P,J2,7,MOSI*%
%TO.N,Net-(A1-D11{slash}COPI)*%
X39920000Y-116500000D03*
%TO.P,J2,6,MISO*%
%TO.N,Net-(A1-D12{slash}CIPO)*%
X37380000Y-116500000D03*
%TO.P,J2,5,SCK*%
%TO.N,Net-(A1-D13{slash}SCK)*%
X34840000Y-116500000D03*
%TO.P,J2,4,G0*%
%TO.N,unconnected-(J2-G0-Pad4)*%
X32300000Y-116500000D03*
%TO.P,J2,3,EN*%
%TO.N,unconnected-(J2-EN-Pad3)*%
X29760000Y-116500000D03*
%TO.P,J2,2,GND*%
%TO.N,GND*%
X27220000Y-116500000D03*
D11*
%TO.P,J2,1,Vin*%
%TO.N,Net-(A1-3V3)*%
X24680000Y-116500000D03*
%TD*%
D12*
%TO.P,H1,1,1*%
%TO.N,GND*%
X30500000Y-79500000D03*
%TD*%
D13*
%TO.P,J4,1,Pin_1*%
%TO.N,+9V*%
X44250000Y-136500000D03*
D14*
%TO.P,J4,2,Pin_2*%
%TO.N,GND*%
X44250000Y-139000000D03*
%TD*%
D15*
%TO.P,R3,1*%
%TO.N,Net-(Q2-G)*%
X77287500Y-98500000D03*
%TO.P,R3,2*%
%TO.N,Net-(A1-A0)*%
X80212500Y-98500000D03*
%TD*%
D12*
%TO.P,H2,1,1*%
%TO.N,GND*%
X81750000Y-77750000D03*
%TD*%
D15*
%TO.P,R1,1*%
%TO.N,Net-(Q1-G)*%
X71287500Y-86250000D03*
%TO.P,R1,2*%
%TO.N,GND*%
X74212500Y-86250000D03*
%TD*%
D11*
%TO.P,TO-220,1,Pin_1*%
%TO.N,Net-(A1-VIN)*%
X38250000Y-122210000D03*
D10*
%TO.P,TO-220,2,Pin_2*%
%TO.N,GND*%
X38250000Y-124750000D03*
%TO.P,TO-220,3,Pin_3*%
%TO.N,+9V*%
X38250000Y-127290000D03*
%TD*%
D15*
%TO.P,R2,1*%
%TO.N,Net-(Q2-G)*%
X77000000Y-103500000D03*
%TO.P,R2,2*%
%TO.N,GND*%
X79925000Y-103500000D03*
%TD*%
D16*
%TO.P,J3,1,Pin_1*%
%TO.N,+9V*%
X30000000Y-121710000D03*
D17*
%TO.P,J3,2,Pin_2*%
%TO.N,Net-(J3-Pin_2)*%
X30000000Y-124250000D03*
%TO.P,J3,3,Pin_3*%
%TO.N,+9V*%
X30000000Y-126790000D03*
%TO.P,J3,4,Pin_4*%
%TO.N,Net-(J3-Pin_4)*%
X30000000Y-129330000D03*
%TD*%
D12*
%TO.P,H3,1,1*%
%TO.N,GND*%
X30250000Y-138250000D03*
%TD*%
D18*
%TO.P,A1,1,D1/TX*%
%TO.N,unconnected-(A1-D1{slash}TX-Pad1)*%
X51760000Y-104440000D03*
D19*
%TO.P,A1,2,D0/RX*%
%TO.N,unconnected-(A1-D0{slash}RX-Pad2)*%
X51760000Y-106980000D03*
%TO.P,A1,3,~{RESET}*%
%TO.N,unconnected-(A1-~{RESET}-Pad3)*%
X51760000Y-109520000D03*
%TO.P,A1,4,GND*%
%TO.N,GND*%
X51760000Y-112060000D03*
%TO.P,A1,5,D2*%
%TO.N,Net-(A1-D2)*%
X51760000Y-114600000D03*
%TO.P,A1,6,D3*%
%TO.N,unconnected-(A1-D3-Pad6)*%
X51760000Y-117140000D03*
%TO.P,A1,7,D4*%
%TO.N,unconnected-(A1-D4-Pad7)*%
X51760000Y-119680000D03*
%TO.P,A1,8,D5*%
%TO.N,unconnected-(A1-D5-Pad8)*%
X51760000Y-122220000D03*
%TO.P,A1,9,D6*%
%TO.N,unconnected-(A1-D6-Pad9)*%
X51760000Y-124760000D03*
%TO.P,A1,10,D7*%
%TO.N,unconnected-(A1-D7-Pad10)*%
X51760000Y-127300000D03*
%TO.P,A1,11,D8*%
%TO.N,unconnected-(A1-D8-Pad11)*%
X51760000Y-129840000D03*
%TO.P,A1,12,D9*%
%TO.N,unconnected-(A1-D9-Pad12)*%
X51760000Y-132380000D03*
%TO.P,A1,13,D10/CS*%
%TO.N,unconnected-(A1-D10{slash}CS-Pad13)*%
X51760000Y-134920000D03*
%TO.P,A1,14,D11/COPI*%
%TO.N,Net-(A1-D11{slash}COPI)*%
X51760000Y-137460000D03*
%TO.P,A1,15,D12/CIPO*%
%TO.N,Net-(A1-D12{slash}CIPO)*%
X51760000Y-140000000D03*
%TO.P,A1,16,D13/SCK*%
%TO.N,Net-(A1-D13{slash}SCK)*%
X67000000Y-140000000D03*
%TO.P,A1,17,3V3*%
%TO.N,Net-(A1-3V3)*%
X67000000Y-137460000D03*
%TO.P,A1,18,B0*%
%TO.N,unconnected-(A1-B0-Pad18)*%
X67000000Y-134920000D03*
%TO.P,A1,19,A0*%
%TO.N,Net-(A1-A0)*%
X67000000Y-132380000D03*
%TO.P,A1,20,A1*%
%TO.N,Net-(A1-A1)*%
X67000000Y-129840000D03*
%TO.P,A1,21,A2*%
%TO.N,unconnected-(A1-A2-Pad21)*%
X67000000Y-127300000D03*
%TO.P,A1,22,A3*%
%TO.N,unconnected-(A1-A3-Pad22)*%
X67000000Y-124760000D03*
%TO.P,A1,23,SDA/A4*%
%TO.N,Net-(A1-SDA{slash}A4)*%
X67000000Y-122220000D03*
%TO.P,A1,24,SCL/A5*%
%TO.N,Net-(A1-SCL{slash}A5)*%
X67000000Y-119680000D03*
%TO.P,A1,25,A6*%
%TO.N,unconnected-(A1-A6-Pad25)*%
X67000000Y-117140000D03*
%TO.P,A1,26,A7*%
%TO.N,unconnected-(A1-A7-Pad26)*%
X67000000Y-114600000D03*
%TO.P,A1,27,VUSB/5V*%
%TO.N,unconnected-(A1-VUSB{slash}5V-Pad27)*%
X67000000Y-112060000D03*
%TO.P,A1,28,B1*%
%TO.N,unconnected-(A1-B1-Pad28)*%
X67000000Y-109520000D03*
%TO.P,A1,29,GND*%
%TO.N,GND*%
X67000000Y-106980000D03*
%TO.P,A1,30,VIN*%
%TO.N,Net-(A1-VIN)*%
X67000000Y-104440000D03*
%TD*%
D20*
%TO.P,Q1,1,G*%
%TO.N,Net-(Q1-G)*%
X85000000Y-85670000D03*
D21*
%TO.P,Q1,2,D*%
%TO.N,Net-(J3-Pin_2)*%
X85000000Y-88210000D03*
%TO.P,Q1,3,S*%
%TO.N,GND*%
X85000000Y-90750000D03*
%TD*%
D22*
%TO.P,C1,1*%
%TO.N,+3.3V*%
X46500000Y-125000000D03*
%TO.P,C1,2*%
%TO.N,GND*%
X46500000Y-121875000D03*
%TD*%
D11*
%TO.P,J1,1,Vin*%
%TO.N,Net-(A1-3V3)*%
X66090000Y-94500000D03*
D10*
%TO.P,J1,2,3Vo*%
%TO.N,unconnected-(J1-3Vo-Pad2)*%
X66090000Y-91960000D03*
%TO.P,J1,3,GND*%
%TO.N,GND*%
X66090000Y-89420000D03*
%TO.P,J1,4,SDL*%
%TO.N,Net-(A1-SDA{slash}A4)*%
X66090000Y-86880000D03*
%TO.P,J1,5,SDA*%
%TO.N,Net-(A1-SCL{slash}A5)*%
X66090000Y-84340000D03*
%TO.P,J1,6,INT*%
%TO.N,unconnected-(J1-INT-Pad6)*%
X66090000Y-81800000D03*
%TD*%
D20*
%TO.P,Q2,1,G*%
%TO.N,Net-(Q2-G)*%
X85000000Y-98920000D03*
D21*
%TO.P,Q2,2,D*%
%TO.N,Net-(J3-Pin_4)*%
X85000000Y-101460000D03*
%TO.P,Q2,3,S*%
%TO.N,GND*%
X85000000Y-104000000D03*
%TD*%
D11*
%TO.P,U5,1,VIN*%
%TO.N,Net-(A1-3V3)*%
X72750000Y-114590000D03*
D10*
%TO.P,U5,2,3Vo*%
%TO.N,unconnected-(U5-3Vo-Pad2)*%
X72750000Y-117130000D03*
%TO.P,U5,3,GND*%
%TO.N,GND*%
X72750000Y-119670000D03*
%TO.P,U5,4,SCK*%
%TO.N,Net-(A1-SCL{slash}A5)*%
X72750000Y-122210000D03*
%TO.P,U5,5,SDO*%
%TO.N,unconnected-(U5-SDO-Pad5)*%
X72750000Y-124750000D03*
%TO.P,U5,6,SDI*%
%TO.N,Net-(A1-SDA{slash}A4)*%
X72750000Y-127290000D03*
%TO.P,U5,7,CS*%
%TO.N,unconnected-(U5-CS-Pad7)*%
X72750000Y-129830000D03*
%TD*%
D12*
%TO.P,H4,1,1*%
%TO.N,GND*%
X75750000Y-139750000D03*
%TD*%
D15*
%TO.P,R4,1*%
%TO.N,Net-(Q1-G)*%
X71325000Y-92500000D03*
%TO.P,R4,2*%
%TO.N,Net-(A1-A1)*%
X74250000Y-92500000D03*
%TD*%
D23*
%TO.N,GND*%
X81500000Y-102500000D03*
X46250000Y-120000000D03*
X75750000Y-86000000D03*
%TD*%
D24*
%TO.N,Net-(A1-D11{slash}COPI)*%
X36861000Y-123361000D02*
X36000000Y-122500000D01*
X38611000Y-123361000D02*
X36861000Y-123361000D01*
X36000000Y-122500000D02*
X36000000Y-120420000D01*
X39920000Y-116500000D02*
X36000000Y-120420000D01*
X38611000Y-123361000D02*
X51760000Y-136510000D01*
X51760000Y-136510000D02*
X51760000Y-137460000D01*
%TO.N,Net-(J3-Pin_4)*%
X30000000Y-129330000D02*
X41771000Y-141101000D01*
X41771000Y-141101000D02*
X61801950Y-141101000D01*
X61801950Y-141101000D02*
X66543950Y-136359000D01*
X66543950Y-136359000D02*
X68415860Y-136359000D01*
X68415860Y-136359000D02*
X83250000Y-121524860D01*
X83250000Y-121524860D02*
X83250000Y-103210000D01*
X83250000Y-103210000D02*
X85000000Y-101460000D01*
%TO.N,Net-(A1-3V3)*%
X72750000Y-114590000D02*
X72750000Y-91826340D01*
X72750000Y-91826340D02*
X75112840Y-89463500D01*
X75112840Y-89463500D02*
X85566717Y-89463500D01*
X85566717Y-89463500D02*
X86750000Y-90646783D01*
X86750000Y-90646783D02*
X86750000Y-120420000D01*
X86750000Y-120420000D02*
X69710000Y-137460000D01*
X69710000Y-137460000D02*
X67000000Y-137460000D01*
%TO.N,Net-(J3-Pin_2)*%
X22750000Y-118250000D02*
X23250000Y-118750000D01*
X22750000Y-116128000D02*
X22750000Y-118250000D01*
X70140760Y-93489420D02*
X70140760Y-84223000D01*
X23250000Y-118750000D02*
X25331000Y-118750000D01*
X72188500Y-93810160D02*
X71872660Y-94126000D01*
X70777340Y-94126000D02*
X70140760Y-93489420D01*
X71872660Y-94126000D02*
X70777340Y-94126000D01*
X66566760Y-80649000D02*
X58229000Y-80649000D01*
X36229000Y-116976760D02*
X32000000Y-121205760D01*
X58229000Y-80649000D02*
X22750000Y-116128000D01*
X70140760Y-84223000D02*
X66566760Y-80649000D01*
X72188500Y-91189840D02*
X72188500Y-93810160D01*
X25331000Y-118750000D02*
X25831000Y-118250000D01*
X75168340Y-88210000D02*
X72188500Y-91189840D01*
X85000000Y-88210000D02*
X75168340Y-88210000D01*
X25831000Y-118250000D02*
X25831000Y-115916100D01*
X25831000Y-115916100D02*
X36229000Y-105518100D01*
X36229000Y-105518100D02*
X36229000Y-116976760D01*
X32000000Y-121205760D02*
X32000000Y-122250000D01*
X32000000Y-122250000D02*
X30000000Y-124250000D01*
%TO.N,Net-(A1-3V3)*%
X64939000Y-93349000D02*
X64939000Y-83863240D01*
X70500000Y-94415760D02*
X70500000Y-112340000D01*
X69739760Y-86362000D02*
X69739760Y-93655520D01*
X66090000Y-94500000D02*
X64939000Y-93349000D01*
X66566760Y-83189000D02*
X69739760Y-86362000D01*
X46680000Y-94500000D02*
X24680000Y-116500000D01*
X64939000Y-83863240D02*
X65613240Y-83189000D01*
X69739760Y-93655520D02*
X70500000Y-94415760D01*
X66090000Y-94500000D02*
X46680000Y-94500000D01*
X70500000Y-112340000D02*
X72750000Y-114590000D01*
X65613240Y-83189000D02*
X66566760Y-83189000D01*
%TO.N,Net-(A1-D13{slash}SCK)*%
X63500000Y-143500000D02*
X67000000Y-140000000D01*
X27000000Y-128169892D02*
X42330108Y-143500000D01*
X33689000Y-117651000D02*
X31772840Y-117651000D01*
X42330108Y-143500000D02*
X63500000Y-143500000D01*
X31772840Y-117651000D02*
X27000000Y-122423840D01*
X34840000Y-116500000D02*
X33689000Y-117651000D01*
X27000000Y-122423840D02*
X27000000Y-128169892D01*
%TO.N,Net-(A1-A1)*%
X68161000Y-128679000D02*
X67000000Y-129840000D01*
X74250000Y-127655760D02*
X73226760Y-128679000D01*
X73226760Y-128679000D02*
X68161000Y-128679000D01*
X74250000Y-92500000D02*
X74250000Y-127655760D01*
%TO.N,Net-(A1-D2)*%
X46900000Y-114600000D02*
X51760000Y-114600000D01*
X45000000Y-116500000D02*
X46900000Y-114600000D01*
%TO.N,Net-(A1-SCL{slash}A5)*%
X72750000Y-122210000D02*
X70220000Y-119680000D01*
X70000000Y-94482860D02*
X70000000Y-116680000D01*
X70000000Y-116680000D02*
X67000000Y-119680000D01*
X69338760Y-93821620D02*
X70000000Y-94482860D01*
X69338760Y-87588760D02*
X69338760Y-93821620D01*
X66090000Y-84340000D02*
X69338760Y-87588760D01*
X70220000Y-119680000D02*
X67000000Y-119680000D01*
%TO.N,Net-(A1-A0)*%
X71827760Y-132380000D02*
X67000000Y-132380000D01*
X78750000Y-99962500D02*
X78750000Y-125457760D01*
X80212500Y-98500000D02*
X78750000Y-99962500D01*
X78750000Y-125457760D02*
X71827760Y-132380000D01*
%TO.N,Net-(A1-SDA{slash}A4)*%
X65899000Y-119223950D02*
X65899000Y-121119000D01*
X66543950Y-118579000D02*
X65899000Y-119223950D01*
X68500000Y-89290000D02*
X68500000Y-117535050D01*
X65899000Y-121119000D02*
X67000000Y-122220000D01*
X68500000Y-117535050D02*
X67456050Y-118579000D01*
X66090000Y-86880000D02*
X68500000Y-89290000D01*
X67000000Y-122220000D02*
X72070000Y-127290000D01*
X67456050Y-118579000D02*
X66543950Y-118579000D01*
X72070000Y-127290000D02*
X72750000Y-127290000D01*
%TO.N,GND*%
X81500000Y-102500000D02*
X80925000Y-102500000D01*
X80925000Y-102500000D02*
X79925000Y-103500000D01*
X74462500Y-86000000D02*
X74212500Y-86250000D01*
X75750000Y-86000000D02*
X74462500Y-86000000D01*
X46500000Y-121875000D02*
X46500000Y-120250000D01*
X46500000Y-120250000D02*
X46250000Y-120000000D01*
%TO.N,Net-(A1-VIN)*%
X42210000Y-118250000D02*
X38250000Y-122210000D01*
X67000000Y-104440000D02*
X53190000Y-118250000D01*
X53190000Y-118250000D02*
X42210000Y-118250000D01*
%TO.N,Net-(A1-D12{slash}CIPO)*%
X34899000Y-118981000D02*
X34899000Y-124248943D01*
X39655050Y-127895050D02*
X51760000Y-140000000D01*
X34899000Y-124248943D02*
X36650057Y-126000000D01*
X37380000Y-116500000D02*
X34899000Y-118981000D01*
X36650057Y-126000000D02*
X39655050Y-126000000D01*
X39655050Y-126000000D02*
X39655050Y-127895050D01*
%TO.N,+9V*%
X44250000Y-136500000D02*
X44250000Y-133290000D01*
X28699000Y-123011000D02*
X28699000Y-125489000D01*
X30500000Y-127290000D02*
X30000000Y-126790000D01*
X38250000Y-127290000D02*
X30500000Y-127290000D01*
X30000000Y-121710000D02*
X28699000Y-123011000D01*
X44250000Y-133290000D02*
X38250000Y-127290000D01*
X28699000Y-125489000D02*
X30000000Y-126790000D01*
%TO.N,Net-(Q1-G)*%
X71287500Y-86287500D02*
X71325000Y-86325000D01*
X85000000Y-85670000D02*
X83954000Y-84624000D01*
X72913500Y-84624000D02*
X71287500Y-86250000D01*
X71287500Y-86250000D02*
X71287500Y-86287500D01*
X71325000Y-86325000D02*
X71325000Y-92500000D01*
X83954000Y-84624000D02*
X72913500Y-84624000D01*
%TO.N,Net-(Q2-G)*%
X85000000Y-98920000D02*
X82330000Y-96250000D01*
X82330000Y-96250000D02*
X79537500Y-96250000D01*
X77287500Y-103212500D02*
X77000000Y-103500000D01*
X77287500Y-98500000D02*
X77287500Y-103212500D01*
X79537500Y-96250000D02*
X77287500Y-98500000D01*
%TD*%
M02*
