%TF.GenerationSoftware,KiCad,Pcbnew,9.0.7-9.0.7~ubuntu24.04.1*%
%TF.CreationDate,2026-03-22T20:36:57-05:00*%
%TF.ProjectId,testkicad,74657374-6b69-4636-9164-2e6b69636164,rev?*%
%TF.SameCoordinates,Original*%
%TF.FileFunction,Soldermask,Bot*%
%TF.FilePolarity,Negative*%
%FSLAX46Y46*%
G04 Gerber Fmt 4.6, Leading zero omitted, Abs format (unit mm)*
G04 Created by KiCad (PCBNEW 9.0.7-9.0.7~ubuntu24.04.1) date 2026-03-22 20:36:57*
%MOMM*%
%LPD*%
G01*
G04 APERTURE LIST*
G04 Aperture macros list*
%AMRoundRect*
0 Rectangle with rounded corners*
0 $1 Rounding radius*
0 $2 $3 $4 $5 $6 $7 $8 $9 X,Y pos of 4 corners*
0 Add a 4 corners polygon primitive as box body*
4,1,4,$2,$3,$4,$5,$6,$7,$8,$9,$2,$3,0*
0 Add four circle primitives for the rounded corners*
1,1,$1+$1,$2,$3*
1,1,$1+$1,$4,$5*
1,1,$1+$1,$6,$7*
1,1,$1+$1,$8,$9*
0 Add four rect primitives between the rounded corners*
20,1,$1+$1,$2,$3,$4,$5,0*
20,1,$1+$1,$4,$5,$6,$7,0*
20,1,$1+$1,$6,$7,$8,$9,0*
20,1,$1+$1,$8,$9,$2,$3,0*%
G04 Aperture macros list end*
%ADD10C,1.700000*%
%ADD11R,1.700000X1.700000*%
%ADD12C,6.400000*%
%ADD13C,1.200000*%
%ADD14RoundRect,0.250000X-0.750000X0.600000X-0.750000X-0.600000X0.750000X-0.600000X0.750000X0.600000X0*%
%ADD15O,2.000000X1.700000*%
%ADD16RoundRect,0.250000X-0.750000X0.750000X-0.750000X-0.750000X0.750000X-0.750000X0.750000X0.750000X0*%
%ADD17C,2.000000*%
%ADD18R,1.600000X1.600000*%
%ADD19O,1.600000X1.600000*%
%ADD20R,2.000000X1.905000*%
%ADD21O,2.000000X1.905000*%
G04 APERTURE END LIST*
D10*
%TO.C,J2*%
X45000000Y-116500000D03*
X42460000Y-116500000D03*
X39920000Y-116500000D03*
X37380000Y-116500000D03*
X34840000Y-116500000D03*
X32300000Y-116500000D03*
X29760000Y-116500000D03*
X27220000Y-116500000D03*
D11*
X24680000Y-116500000D03*
%TD*%
D12*
%TO.C,H1*%
X30500000Y-79500000D03*
%TD*%
D13*
%TO.C,J4*%
X42250000Y-134900000D03*
D14*
X44250000Y-136500000D03*
D15*
X44250000Y-139000000D03*
%TD*%
D12*
%TO.C,H2*%
X81750000Y-77750000D03*
%TD*%
D11*
%TO.C,TO-220*%
X38250000Y-122210000D03*
D10*
X38250000Y-124750000D03*
X38250000Y-127290000D03*
%TD*%
D16*
%TO.C,J3*%
X30000000Y-121710000D03*
D17*
X30000000Y-124250000D03*
X30000000Y-126790000D03*
X30000000Y-129330000D03*
%TD*%
D12*
%TO.C,H3*%
X30250000Y-138250000D03*
%TD*%
D18*
%TO.C,A1*%
X51760000Y-104440000D03*
D19*
X51760000Y-106980000D03*
X51760000Y-109520000D03*
X51760000Y-112060000D03*
X51760000Y-114600000D03*
X51760000Y-117140000D03*
X51760000Y-119680000D03*
X51760000Y-122220000D03*
X51760000Y-124760000D03*
X51760000Y-127300000D03*
X51760000Y-129840000D03*
X51760000Y-132380000D03*
X51760000Y-134920000D03*
X51760000Y-137460000D03*
X51760000Y-140000000D03*
X67000000Y-140000000D03*
X67000000Y-137460000D03*
X67000000Y-134920000D03*
X67000000Y-132380000D03*
X67000000Y-129840000D03*
X67000000Y-127300000D03*
X67000000Y-124760000D03*
X67000000Y-122220000D03*
X67000000Y-119680000D03*
X67000000Y-117140000D03*
X67000000Y-114600000D03*
X67000000Y-112060000D03*
X67000000Y-109520000D03*
X67000000Y-106980000D03*
X67000000Y-104440000D03*
%TD*%
D20*
%TO.C,Q1*%
X85000000Y-85670000D03*
D21*
X85000000Y-88210000D03*
X85000000Y-90750000D03*
%TD*%
D11*
%TO.C,J1*%
X66090000Y-94500000D03*
D10*
X66090000Y-91960000D03*
X66090000Y-89420000D03*
X66090000Y-86880000D03*
X66090000Y-84340000D03*
X66090000Y-81800000D03*
%TD*%
D20*
%TO.C,Q2*%
X85000000Y-98920000D03*
D21*
X85000000Y-101460000D03*
X85000000Y-104000000D03*
%TD*%
D11*
%TO.C,U5*%
X72750000Y-114590000D03*
D10*
X72750000Y-117130000D03*
X72750000Y-119670000D03*
X72750000Y-122210000D03*
X72750000Y-124750000D03*
X72750000Y-127290000D03*
X72750000Y-129830000D03*
%TD*%
D12*
%TO.C,H4*%
X75750000Y-139750000D03*
%TD*%
M02*
